<svg viewBox="0 0 24 24" fill="currentColor" xmlns="http://www.w3.org/2000/svg">
    <path id="icon" fill="#000" d="M23.71872,22.36128 L17.98848,16.63104 C21.2316799,12.664515 20.7949309,6.85163469 16.9954412,3.41426008 C13.1959516,-0.0231145269 7.36850809,0.12258985 3.74554897,3.74554897 C0.12258985,7.36850809 -0.0231145269,13.1959516 3.41426008,16.9954412 C6.85163469,20.7949309 12.664515,21.2316799 16.63104,17.98848 L22.36128,23.71872 C22.7379637,24.0825333 23.3367214,24.0773303 23.7070258,23.7070258 C24.0773303,23.3367214 24.0825333,22.7379637 23.71872,22.36128 Z M10.56,18.24 C6.31845312,18.24 2.88,14.8015469 2.88,10.56 C2.88,6.31845312 6.31845312,2.88 10.56,2.88 C14.8015469,2.88 18.24,6.31845312 18.24,10.56 C18.2352385,14.799573 14.799573,18.2352385 10.56,18.24 L10.56,18.24 Z"></path>
</svg>
